<?xml version="1.0" encoding="UTF-8"?>
<svg xmlns="http://www.w3.org/2000/svg" xmlns:xlink="http://www.w3.org/1999/xlink" width="32px" height="32px" viewBox="0 0 32 32" version="1.1">
<g id="surface1">
<path style=" stroke:none;fill-rule:evenodd;fill:rgb(98.431373%,73.72549%,1.960784%);fill-opacity:1;" d="M 6.894531 16 C 6.894531 14.960938 7.070312 13.964844 7.378906 13.03125 L 1.984375 8.910156 C 0.933594 11.046875 0.339844 13.449219 0.339844 16 C 0.339844 18.546875 0.933594 20.949219 1.980469 23.082031 L 7.371094 18.957031 C 7.066406 18.027344 6.894531 17.035156 6.894531 16 "/>
<path style=" stroke:none;fill-rule:evenodd;fill:rgb(91.764706%,26.27451%,20.784314%);fill-opacity:1;" d="M 16.363281 6.546875 C 18.621094 6.546875 20.660156 7.34375 22.261719 8.65625 L 26.925781 4 C 24.085938 1.527344 20.441406 0 16.363281 0 C 10.03125 0 4.589844 3.621094 1.984375 8.910156 L 7.375 13.03125 C 8.621094 9.257812 12.160156 6.546875 16.363281 6.546875 "/>
<path style=" stroke:none;fill-rule:evenodd;fill:rgb(20.392157%,65.882353%,32.54902%);fill-opacity:1;" d="M 16.363281 25.453125 C 12.160156 25.453125 8.621094 22.742188 7.378906 18.96875 L 1.984375 23.085938 C 4.589844 28.378906 10.03125 32 16.363281 32 C 20.273438 32 24.003906 30.613281 26.804688 28.011719 L 21.683594 24.054688 C 20.242188 24.964844 18.421875 25.453125 16.363281 25.453125 "/>
<path style=" stroke:none;fill-rule:evenodd;fill:rgb(25.882353%,52.156863%,95.686275%);fill-opacity:1;" d="M 31.660156 16 C 31.660156 15.054688 31.511719 14.035156 31.292969 13.089844 L 16.363281 13.089844 L 16.363281 19.273438 L 24.957031 19.273438 C 24.527344 21.378906 23.359375 23 21.683594 24.054688 L 26.804688 28.011719 C 29.746094 25.28125 31.660156 21.214844 31.660156 16 "/>
</g>
</svg>
