<?xml version="1.0" encoding="UTF-8"?>
<svg xmlns="http://www.w3.org/2000/svg" xmlns:xlink="http://www.w3.org/1999/xlink" width="48px" height="48px" viewBox="0 0 48 48" version="1.1">
<g id="surface1">
<path style=" stroke:none;fill-rule:nonzero;fill:rgb(0%,3.921569%,7.058824%);fill-opacity:1;" d="M 41.425781 34.488281 C 36.730469 38.160156 29.953125 37.339844 26.273438 32.648438 L 23.953125 36.117188 L 21.65625 32.675781 C 18.042969 37.195312 11.503906 38.058594 6.84375 34.628906 C 2.042969 31.097656 1.019531 24.347656 4.550781 19.550781 C 4.097656 18.011719 3.378906 16.566406 2.4375 15.269531 L 9.199219 15.269531 C 13.617188 12.515625 18.746094 11.109375 23.953125 11.222656 C 29.035156 11.132812 34.03125 12.519531 38.339844 15.214844 L 45.542969 15.222656 C 44.589844 16.527344 43.875 17.988281 43.425781 19.542969 C 46.921875 24.234375 46.035156 30.871094 41.425781 34.488281 Z M 41.425781 34.488281 "/>
<path style=" stroke:none;fill-rule:nonzero;fill:rgb(100%,100%,100%);fill-opacity:1;" d="M 42.84375 22.992188 C 41.199219 18.527344 36.238281 16.242188 31.777344 17.886719 C 27.308594 19.535156 25.027344 24.492188 26.671875 28.957031 C 28.324219 33.421875 33.277344 35.699219 37.738281 34.054688 C 42.207031 32.410156 44.488281 27.457031 42.84375 22.992188 Z M 42.84375 22.992188 "/>
<path style=" stroke:none;fill-rule:nonzero;fill:rgb(0%,3.921569%,7.058824%);fill-opacity:1;" d="M 40.058594 25.832031 L 40.058594 25.839844 C 40.058594 28.78125 37.667969 31.171875 34.730469 31.167969 C 31.78125 31.167969 29.394531 28.777344 29.394531 25.832031 C 29.402344 22.886719 31.785156 20.503906 34.734375 20.503906 C 37.675781 20.507812 40.058594 22.894531 40.058594 25.832031 Z M 40.058594 25.832031 "/>
<path style=" stroke:none;fill-rule:nonzero;fill:rgb(100%,100%,100%);fill-opacity:1;" d="M 38.226562 25.832031 C 38.226562 23.90625 36.660156 22.339844 34.730469 22.339844 C 32.800781 22.339844 31.238281 23.90625 31.238281 25.839844 C 31.238281 27.769531 32.800781 29.332031 34.734375 29.332031 C 36.660156 29.324219 38.226562 27.761719 38.226562 25.832031 Z M 38.226562 25.832031 "/>
<path style=" stroke:none;fill-rule:nonzero;fill:rgb(100%,100%,100%);fill-opacity:1;" d="M 21.855469 25.925781 C 21.855469 21.167969 18 17.316406 13.242188 17.316406 C 8.480469 17.316406 4.621094 21.167969 4.621094 25.925781 C 4.621094 30.691406 8.484375 34.546875 13.242188 34.546875 C 17.996094 34.542969 21.847656 30.683594 21.855469 25.933594 Z M 21.855469 25.925781 "/>
<path style=" stroke:none;fill-rule:nonzero;fill:rgb(0%,3.921569%,7.058824%);fill-opacity:1;" d="M 18.433594 25.832031 L 18.433594 25.847656 C 18.425781 28.785156 16.035156 31.171875 13.089844 31.167969 C 10.148438 31.167969 7.761719 28.777344 7.769531 25.828125 C 7.777344 22.886719 10.167969 20.503906 13.105469 20.503906 C 16.050781 20.511719 18.425781 22.898438 18.433594 25.832031 Z M 18.433594 25.832031 "/>
<path style=" stroke:none;fill-rule:nonzero;fill:rgb(100%,100%,100%);fill-opacity:1;" d="M 16.59375 25.832031 L 16.59375 25.828125 C 16.59375 23.902344 15.023438 22.335938 13.097656 22.339844 C 11.160156 22.339844 9.605469 23.910156 9.605469 25.847656 C 9.609375 27.773438 11.179688 29.339844 13.105469 29.332031 C 15.035156 29.320312 16.59375 27.761719 16.59375 25.832031 Z M 16.59375 25.832031 "/>
<path style=" stroke:none;fill-rule:nonzero;fill:rgb(93.72549%,41.568627%,27.058824%);fill-opacity:1;" d="M 14.894531 25.832031 C 14.894531 26.824219 14.089844 27.632812 13.101562 27.632812 C 12.113281 27.632812 11.308594 26.824219 11.308594 25.832031 C 11.308594 24.84375 12.113281 24.042969 13.101562 24.042969 C 14.089844 24.042969 14.894531 24.84375 14.894531 25.832031 Z M 14.894531 25.832031 "/>
<path style=" stroke:none;fill-rule:nonzero;fill:rgb(0%,69.019608%,52.941176%);fill-opacity:1;" d="M 34.734375 24.042969 C 33.746094 24.042969 32.941406 24.84375 32.941406 25.832031 C 32.941406 26.824219 33.746094 27.628906 34.734375 27.628906 C 35.722656 27.628906 36.527344 26.824219 36.527344 25.832031 C 36.527344 24.84375 35.722656 24.042969 34.734375 24.042969 Z M 34.734375 24.042969 "/>
<path style=" stroke:none;fill-rule:nonzero;fill:rgb(98.823529%,76.862745%,5.882353%);fill-opacity:1;" d="M 23.996094 25.148438 C 24.402344 19.644531 28.902344 15.347656 34.410156 15.1875 C 31.113281 13.757812 27.542969 13.050781 23.953125 13.101562 C 20.347656 13.074219 16.78125 13.761719 13.457031 15.144531 C 19.027344 15.261719 23.589844 19.59375 23.996094 25.148438 Z M 23.996094 25.148438 "/>
</g>
</svg>
